{
    "asset" : {
        "generator" : "Khronos glTF Blender I/O v1.2.75",
        "version" : "2.0"
    },
    "scene" : 0,
    "scenes" : [
        {
            "name" : "Scene",
            "nodes" : [
                0,
                1,
                2,
                3,
                4,
                5,
                6,
                7,
                8
            ]
        }
    ],
    "nodes" : [
        {
            "mesh" : 0,
            "name" : "head",
            "scale" : [
                0.013577125035226345,
                0.013786734081804752,
                0.014158682897686958
            ],
            "translation" : [
                1.4092714991420507e-05,
                0,
                -0.00048488937318325043
            ]
        },
        {
            "name" : "strand_top",
            "rotation" : [
                0.5,
                -0.5,
                -0.4999999701976776,
                0.5
            ],
            "scale" : [
                0.08397039026021957,
                0.08397039026021957,
                0.08397039026021957
            ],
            "translation" : [
                0.17392003536224365,
                -0.13918790221214294,
                -0.4183235168457031
            ]
        },
        {
            "name" : "shape_top",
            "rotation" : [
                0.7071067690849304,
                0,
                0,
                0.7071067690849304
            ],
            "scale" : [
                1.856180191040039,
                1.856180191040039,
                1.856180191040039
            ],
            "translation" : [
                0.5019496083259583,
                0.35316190123558044,
                0
            ]
        },
        {
            "name" : "strand_bottom",
            "rotation" : [
                0.5,
                -0.5,
                -0.4999999701976776,
                0.5
            ],
            "scale" : [
                0.08397039026021957,
                0.08397039026021957,
                0.08397039026021957
            ],
            "translation" : [
                0.9541487097740173,
                0.01854058727622032,
                0
            ]
        },
        {
            "name" : "shape_bottom",
            "rotation" : [
                0.7071067690849304,
                0,
                0,
                0.7071067690849304
            ],
            "scale" : [
                1.856180191040039,
                1.856180191040039,
                1.856180191040039
            ],
            "translation" : [
                0.9541487097740173,
                0.35316190123558044,
                0
            ]
        },
        {
            "name" : "strand_bottom.001",
            "rotation" : [
                0.5,
                -0.5,
                -0.4999999701976776,
                0.5
            ],
            "scale" : [
                0.08397039026021957,
                0.08397039026021957,
                0.08397039026021957
            ],
            "translation" : [
                0.9541487097740173,
                0.01854058727622032,
                0
            ]
        },
        {
            "name" : "strand_top.001",
            "rotation" : [
                0.6389546394348145,
                -0.6389546394348145,
                0.3028810918331146,
                -0.302881121635437
            ],
            "scale" : [
                0.08397039026021957,
                0.08397039026021957,
                0.08397039026021957
            ],
            "translation" : [
                -0.23161736130714417,
                -0.13680724799633026,
                -0.3687642812728882
            ]
        },
        {
            "name" : "top_hair"
        },
        {
            "name" : "bottom_hair",
            "rotation" : [
                0.5,
                -0.5,
                -0.4999999701976776,
                0.5
            ],
            "scale" : [
                0.08397039026021957,
                0.08397039026021957,
                0.08397039026021957
            ]
        }
    ],
    "materials" : [
        {
            "doubleSided" : true,
            "emissiveFactor" : [
                0,
                0,
                0
            ],
            "name" : "Material",
            "pbrMetallicRoughness" : {
                "baseColorFactor" : [
                    0.800000011920929,
                    0.800000011920929,
                    0.800000011920929,
                    1
                ],
                "metallicFactor" : 0,
                "roughnessFactor" : 0.5
            }
        }
    ],
    "meshes" : [
        {
            "name" : "Plane.002",
            "primitives" : [
                {
                    "attributes" : {
                        "POSITION" : 0,
                        "NORMAL" : 1,
                        "TEXCOORD_0" : 2
                    },
                    "indices" : 3,
                    "material" : 0
                }
            ]
        }
    ],
    "accessors" : [
        {
            "bufferView" : 0,
            "componentType" : 5126,
            "count" : 3810,
            "max" : [
                19.59467887878418,
                26.414226531982422,
                1.141743540763855
            ],
            "min" : [
                -19.59467887878418,
                -21.24432945251465,
                -36.31623840332031
            ],
            "type" : "VEC3"
        },
        {
            "bufferView" : 1,
            "componentType" : 5126,
            "count" : 3810,
            "type" : "VEC3"
        },
        {
            "bufferView" : 2,
            "componentType" : 5126,
            "count" : 3810,
            "type" : "VEC2"
        },
        {
            "bufferView" : 3,
            "componentType" : 5123,
            "count" : 17541,
            "type" : "SCALAR"
        }
    ],
    "bufferViews" : [
        {
            "buffer" : 0,
            "byteLength" : 45720,
            "byteOffset" : 0
        },
        {
            "buffer" : 0,
            "byteLength" : 45720,
            "byteOffset" : 45720
        },
        {
            "buffer" : 0,
            "byteLength" : 30480,
            "byteOffset" : 91440
        },
        {
            "buffer" : 0,
            "byteLength" : 35082,
            "byteOffset" : 121920
        }
    ],
    "buffers" : [
        {
            "byteLength" : 157004,
            "uri" : "data:application/octet-stream;base64,"
        }
    ]
}
